<svg width="46" height="46" viewBox="0 0 46 46" fill="none" xmlns="http://www.w3.org/2000/svg">
<g clip-path="url(#clip0_83_49)">
<path d="M45.9225 13.5303C45.9222 12.7589 45.7366 12.0773 45.3612 11.4923C44.9925 10.9171 44.4403 10.4349 43.6996 10.0537C37.5858 6.92041 31.466 3.79671 25.3541 0.66024C23.7063 -0.185245 22.1087 -0.154422 20.4732 0.703201C18.0397 1.97877 5.85601 8.18288 2.22543 10.0519C0.73025 10.8212 0.00269531 11.9986 0.00233594 13.5289C0 19.8301 0.00233594 26.1312 0 32.4325C0.000359375 33.187 0.17807 33.8553 0.536906 34.4316C0.905804 35.0242 1.46571 35.5196 2.22345 35.9095C5.85422 37.7785 18.0395 43.9822 20.4725 45.2581C22.1087 46.1162 23.7063 46.1468 25.3546 45.301C31.4667 42.1644 37.5868 39.0408 43.7016 35.9076C44.4594 35.5179 45.0193 35.0222 45.3882 34.43C45.7465 33.8537 45.9245 33.1854 45.9249 32.4308C45.9249 32.4308 45.9249 19.8317 45.9225 13.5303Z" fill="#D08961"/>
<path d="M23.0327 22.9193L0.536865 34.4315C0.905764 35.0242 1.46567 35.5196 2.22341 35.9095C5.85418 37.7785 18.0395 43.9821 20.4725 45.258C22.1087 46.1161 23.7063 46.1468 25.3546 45.301C31.4667 42.1644 37.5868 39.0408 43.7016 35.9076C44.4593 35.5179 45.0192 35.0221 45.3881 34.4299L23.0327 22.9193Z" fill="#B87650"/>
<path d="M16.3698 26.3293C17.6788 28.3605 20.1396 29.7304 22.9625 29.7304C25.8028 29.7304 28.2776 28.3431 29.58 26.2902L23.0327 22.9193L16.3698 26.3293Z" fill="#B87650"/>
<path d="M45.9226 13.5303C45.9222 12.7589 45.7366 12.0773 45.3612 11.4923L23.0327 22.9193L45.3882 34.43C45.7465 33.8537 45.9245 33.1854 45.9249 32.4308C45.9249 32.4308 45.9249 19.8317 45.9226 13.5303Z" fill="#9A5E3C"/>
<path d="M44.6934 23.7421H42.9464V25.2951H41.1992V23.7421H39.4524V22.1896H41.1992V20.6369H42.9464V22.1896H44.6934V23.7421ZM38.319 23.7421H36.5722V25.2951H34.8253V23.7421H33.0784V22.1896H34.8253V20.6369H36.5722V22.1896H38.319V23.7421Z" fill="white"/>
<path d="M29.5799 26.2902C28.2776 28.3431 25.8027 29.7304 22.9624 29.7304C20.1395 29.7304 17.6787 28.3605 16.3697 26.3293C15.7121 25.3101 15.3667 24.1555 15.3681 22.9806C15.3681 19.2529 18.7683 16.2309 22.9624 16.2309C25.7671 16.2309 28.215 17.5838 29.5305 19.5942L36.1684 16.1969C33.53 12.149 28.6042 9.42569 22.9624 9.42569C14.5394 9.42569 7.71143 15.4945 7.71143 22.9806C7.71143 25.4366 8.44653 27.7397 9.73129 29.7263C12.363 33.7956 17.3028 36.5357 22.9624 36.5357C28.6324 36.5357 33.58 33.7846 36.2079 29.7033L29.5799 26.2902Z" fill="white"/>
</g>
<defs>
<clipPath id="clip0_83_49">
<rect width="46" height="46" fill="white"/>
</clipPath>
</defs>
</svg>
